<?xml version="1.0" standalone="no"?>
<!DOCTYPE svg PUBLIC "-//W3C//DTD SVG 20010904//EN"
 "http://www.w3.org/TR/2001/REC-SVG-20010904/DTD/svg10.dtd">
<svg version="1.0" xmlns="http://www.w3.org/2000/svg"
 width="596.000000pt" height="596.000000pt" viewBox="0 0 596.000000 596.000000"
 preserveAspectRatio="xMidYMid meet">
<metadata>
Created by potrace 1.11, written by Peter Selinger 2001-2013
</metadata>
<g transform="translate(0.000000,596.000000) scale(0.100000,-0.100000)"
fill="#000000" stroke="none">
<path d="M2579 5956 c-2 -2 -24 -6 -49 -9 -347 -44 -784 -201 -1109 -399 -130
-79 -358 -247 -437 -322 -166 -157 -280 -279 -371 -396 -309 -400 -511 -861
-593 -1355 -17 -102 -19 -167 -19 -489 0 -275 4 -393 15 -456 8 -47 17 -101
20 -120 3 -19 8 -38 10 -41 2 -3 6 -21 9 -40 40 -234 209 -649 369 -906 51
-82 219 -320 235 -333 3 -3 24 -25 45 -50 316 -365 718 -652 1165 -830 92 -36
332 -114 384 -124 12 -2 45 -9 72 -16 307 -70 728 -86 1070 -40 286 39 609
139 885 273 835 406 1438 1187 1619 2094 16 81 32 177 36 213 4 36 9 74 12 85
9 38 11 470 2 545 -27 248 -38 312 -79 475 -225 879 -814 1596 -1630 1982
-212 100 -510 197 -710 229 -19 3 -66 12 -105 19 -51 10 -176 14 -456 14 -212
1 -388 -1 -390 -3z m681 -150 c19 -3 58 -8 85 -11 405 -47 866 -225 1225 -473
696 -480 1133 -1222 1217 -2067 15 -153 10 -458 -11 -635 -5 -39 -32 -191 -41
-230 -3 -14 -8 -36 -11 -50 -16 -83 -82 -290 -132 -416 -24 -61 -121 -262
-154 -319 -393 -689 -1041 -1181 -1798 -1363 -122 -30 -142 -34 -265 -53 -242
-37 -666 -32 -875 11 -25 5 -62 12 -84 15 -21 3 -42 7 -46 10 -3 2 -22 7 -41
10 -55 9 -206 53 -314 92 -453 162 -857 438 -1175 803 -36 41 -67 77 -70 80
-32 32 -220 302 -220 316 0 3 -8 18 -19 32 -105 149 -282 593 -316 791 -3 19
-8 37 -10 41 -3 5 -25 129 -39 220 -27 176 -28 621 -2 745 2 11 7 42 10 69 4
28 14 82 22 120 9 39 18 82 20 96 3 14 16 66 30 115 173 608 528 1124 1039
1506 280 210 625 377 959 463 111 29 120 31 231 51 112 19 139 23 230 31 44 3
82 8 84 10 6 5 432 -4 471 -10z"/>
<path d="M2090 4988 c-108 -19 -230 -109 -280 -208 -44 -87 -43 -43 -44 -1765
-1 -902 2 -1665 7 -1695 23 -160 157 -299 314 -328 29 -5 417 -8 910 -7 783 1
862 3 903 19 142 54 232 154 263 293 19 84 16 3336 -2 3403 -27 97 -110 203
-191 245 -98 50 -54 48 -975 50 -473 0 -880 -3 -905 -7z m1785 -175 c55 -29
94 -70 118 -123 21 -45 21 -56 21 -1700 0 -1643 -1 -1655 -21 -1700 -24 -53
-63 -94 -118 -123 -40 -22 -42 -22 -898 -23 l-859 0 -46 22 c-57 26 -105 75
-128 129 -16 37 -17 156 -18 1680 -1 1261 1 1650 10 1683 23 81 78 139 159
166 26 9 244 12 887 12 851 -1 853 -1 893 -23z"/>
</g>
</svg>
